<svg class="svg-icon" aria-hidden="true" role="img" focusable="false" width="80" height="50" viewBox="0 0 198 126.26" xmlns="http://www.w3.org/2000/svg"><g transform="translate(-207 -288)"><g fill="#ffffff"><path d="m234.22 302.46 7.59 19.33h-5.81l-1.13-3.32h-6.87l-1.13 3.32h-5.53l7.6-19.33zm-.78 11.87-2-5.83-2 5.83z"></path><path d="m254.93 319-3.93-7.73v10.52h-5v-19.33h5.38l5.11 10.1 5.11-10.1h5.11v19.33h-5.06v-10.52l-3.96 7.73z"></path><path d="m287.87 321.79h-14.87v-19.33h14.6v4.54h-9.39v2.76h8v4.28h-8v3.18h9.66z"></path><path d="m293.46 321.79v-19.33h8.92a7.58 7.58 0 0 1 5.24 1.78 6 6 0 0 1 2 4.71 6.39 6.39 0 0 1 -1 3.53 6.51 6.51 0 0 1 -2.72 2.35l4.53 7h-6.08l-3.78-6.22h-1.88v6.22zm8.29-14.92h-3v4.7h3a2.71 2.71 0 0 0 1.93-.64 2.46 2.46 0 0 0 0-3.42 2.76 2.76 0 0 0 -1.93-.64z"></path><path d="m315.23 321.79v-19.33h5.39v19.33z"></path><path d="m340.28 315.16 3.73 3.31a4.68 4.68 0 0 1 -.28.39 8.24 8.24 0 0 1 -.89.87 9 9 0 0 1 -1.55 1.09 10.63 10.63 0 0 1 -2.24.86 10.87 10.87 0 0 1 -2.94.38 9.91 9.91 0 0 1 -7.25-2.83 9.46 9.46 0 0 1 -2.89-7 9.61 9.61 0 0 1 3-7.11 10.08 10.08 0 0 1 7.34-2.91 11.57 11.57 0 0 1 2.81.33 8.94 8.94 0 0 1 2.17.8 12.09 12.09 0 0 1 1.47.95 5.51 5.51 0 0 1 .87.82l.27.33-3.9 3.34-.14-.19a3.87 3.87 0 0 0 -.42-.42 3.93 3.93 0 0 0 -1.8-1 5.2 5.2 0 0 0 -1.43-.2 4.73 4.73 0 0 0 -3.56 1.47 5.42 5.42 0 0 0 0 7.29 4.76 4.76 0 0 0 3.56 1.46 5.37 5.37 0 0 0 1.52-.21 3.58 3.58 0 0 0 1.16-.51 6.44 6.44 0 0 0 .78-.62 4.61 4.61 0 0 0 .47-.51z"></path><path d="m359.77 302.46 7.59 19.33h-5.8l-1.13-3.32h-6.85l-1.13 3.32h-5.53l7.6-19.33zm-.77 11.87-2-5.83-2 5.83z"></path><path d="m384.35 321.79-7.74-11.46v11.46h-5.11v-19.33h5.37l7.48 11.08v-11.08h5.11v19.33z"></path></g><path d="m367.72 341.7 13.09 19.11h8.64v-32.23h-8.64v18.48l-12.66-18.48h-9.07v32.23h8.64zm-38 13.58h11.58l1.92 5.53h9.78l-12.85-32.23h-8.85l-12.85 32.23h9.35zm5.8-16.62 3.36 9.72h-6.78zm-23 14.55h-16.33v-5.29h13.56v-7.14h-13.56v-4.6h15.89v-7.6h-24.77v32.23h25.24zm-75.07 8.06a18.75 18.75 0 0 0 5-.65 17.19 17.19 0 0 0 3.79-1.43 15.06 15.06 0 0 0 2.62-1.81 13.85 13.85 0 0 0 1.51-1.45 7.15 7.15 0 0 0 .47-.65l-6.31-5.52-.28.37a7.4 7.4 0 0 1 -.79.85 10.3 10.3 0 0 1 -1.31 1 6.78 6.78 0 0 1 -2 .85 9.38 9.38 0 0 1 -2.57.35 8.06 8.06 0 0 1 -6-2.44 8.94 8.94 0 0 1 0-12.15 8.06 8.06 0 0 1 6-2.44 9 9 0 0 1 2.4.32 8 8 0 0 1 1.83.71 7 7 0 0 1 1.23.9 6.36 6.36 0 0 1 .7.69 3.78 3.78 0 0 1 .24.32l6.59-5.61-.47-.56a8.18 8.18 0 0 0 -1.47-1.35 19 19 0 0 0 -2.48-1.59 15.38 15.38 0 0 0 -3.67-1.34 20.23 20.23 0 0 0 -4.76-.55 17.15 17.15 0 0 0 -12.37 4.91 15.86 15.86 0 0 0 -5 11.85 15.62 15.62 0 0 0 4.88 11.72 17 17 0 0 0 12.25 4.7zm43-8.29h-15v-24.4h-8.88v32.23h23.84zm-45.17 14.7h-13.88v32.12h8.46v-9.41h5.21a12.59 12.59 0 0 0 8.93-3.21 10.79 10.79 0 0 0 3.45-8.26 10.61 10.61 0 0 0 -3.32-8.17 12.41 12.41 0 0 0 -8.79-3.07zm2.43 14.45a4.53 4.53 0 0 1 -3.23 1.15h-4.68v-8.28h4.68a4.53 4.53 0 0 1 3.23 1.15 4.25 4.25 0 0 1 0 6zm65 17.67 4.93-17.62 5 17.62h7.27l10.36-32.12h-8.82l-5.42 18.81-5.15-18.81h-6l-5.16 18.81-5.42-18.81h-9.25l10.36 32.12zm54.71-24.55v-7.57h-23.54v32.12h24v-7.57h-15.54v-5.23h12.91v-7.11h-12.91v-4.59zm30.83 9.08a10.77 10.77 0 0 0 1.58-5.87 10.07 10.07 0 0 0 -3.23-7.82 12 12 0 0 0 -8.43-3h-14.33v32.16h8.46v-10.33h3l6.1 10.33h9.8l-7.3-11.57a10.38 10.38 0 0 0 4.4-3.9zm-8-2.57a4.32 4.32 0 0 1 -3.12 1.06h-4.83v-7.82h4.89a4.36 4.36 0 0 1 3.12 1.05 3.77 3.77 0 0 1 1.11 2.85 3.73 3.73 0 0 1 -1.11 2.86zm-173.25-93.76v126.26h57.79v-14.19-8.72a7.36 7.36 0 0 1 -3.06-1.88 7.73 7.73 0 0 1 -2.27-5.67 8 8 0 0 1 8.08-8.07 7.76 7.76 0 0 1 7.94 7.94 7.83 7.83 0 0 1 -2.32 5.73 7.65 7.65 0 0 1 -3 1.9v8.7 14.23h134.84v-126.23zm190.77 119h-120.38v-10a17.76 17.76 0 0 0 1.81-1.59 16.12 16.12 0 0 0 4.8-11.81 16.55 16.55 0 0 0 -28.24-11.54 16.15 16.15 0 0 0 -4.8 11.81 16.21 16.21 0 0 0 6.6 13.35v9.78h-43.33v-111.77h183.54z" fill="#ffffff"></path></g></svg>