<?xml version="1.0" encoding="utf-8"?>
<!-- Generator: Adobe Illustrator 16.0.3, SVG Export Plug-In . SVG Version: 6.00 Build 0)  -->
<!DOCTYPE svg PUBLIC "-//W3C//DTD SVG 1.1//EN" "http://www.w3.org/Graphics/SVG/1.1/DTD/svg11.dtd">
<svg version="1.1" id="Layer_1" xmlns="http://www.w3.org/2000/svg" xmlns:xlink="http://www.w3.org/1999/xlink" x="0px" y="0px"
	 width="64px" height="43.419px" viewBox="6.125 -10.572 64 43.419" enable-background="new 6.125 -10.572 64 43.419"
	 xml:space="preserve">
<polygon fill="#FFFFFF" points="67.659,1.51 64.885,-5.228 62.607,-0.144 62.607,-0.582 65.02,-6.688 67.923,0.284 "/>
<path fill="#FFFFFF" d="M50.11,8.43l2.401-0.427c-0.466-0.171-0.995-0.285-1.534-0.325c0.002-0.001,0.002-0.001,0.005-0.002
	c-0.005,0.001-0.008,0.001-0.013,0.002c-1.259-0.089-2.572,0.235-3.306,1.212c-0.031,1.206-0.267,2.399-0.173,3.615l2.408-0.429
	c-0.092-1.204,0.069-2.389,0.205-3.604C50.106,8.459,50.108,8.444,50.11,8.43z"/>
<path fill="#FFFFFF" d="M43.229,8.319l2.401-0.427c-0.469-0.172-0.998-0.287-1.534-0.325c0-0.001,0.002-0.001,0.005-0.003
	c-0.005,0-0.01,0.001-0.013,0.003c-1.258-0.09-2.571,0.236-3.308,1.213c-0.031,1.205-0.265,2.399-0.174,3.615l2.412-0.43
	c-0.094-1.204,0.072-2.389,0.204-3.605C43.222,8.346,43.228,8.332,43.229,8.319z"/>
<path fill="#FFFFFF" d="M36.438,8.369l2.404-0.427c-0.471-0.172-0.999-0.285-1.539-0.323c0.002-0.001,0.005-0.001,0.005-0.005
	c-0.002,0.003-0.007,0.003-0.011,0.005c-1.256-0.09-2.572,0.233-3.308,1.211c-0.026,1.203-0.263,2.4-0.172,3.614l2.41-0.428
	c-0.093-1.203,0.072-2.39,0.204-3.604C36.431,8.397,36.437,8.383,36.438,8.369z"/>
<path fill="#FFFFFF" d="M29.406,8.369l2.401-0.427c-0.467-0.172-0.995-0.285-1.534-0.323c0-0.001,0-0.001,0.002-0.005
	c-0.002,0.003-0.007,0.003-0.011,0.005c-1.258-0.09-2.572,0.233-3.308,1.211c-0.029,1.203-0.264,2.4-0.172,3.614l2.411-0.428
	c-0.092-1.203,0.069-2.39,0.202-3.604C29.401,8.397,29.404,8.383,29.406,8.369z"/>
<path fill="#FFFFFF" d="M22.516,8.477l2.4-0.427c-0.468-0.172-0.997-0.286-1.537-0.325c0.003-0.001,0.006-0.003,0.007-0.003
	c-0.003,0-0.009,0.002-0.013,0.003c-1.257-0.09-2.571,0.235-3.307,1.211c-0.03,1.204-0.265,2.4-0.172,3.616l2.408-0.43
	c-0.091-1.206,0.074-2.389,0.206-3.605C22.508,8.506,22.511,8.49,22.516,8.477z"/>
<path fill="#FFFFFF" d="M15.635,8.362l2.401-0.423c-0.468-0.173-0.997-0.287-1.537-0.327c0.002,0,0.002,0,0.004-0.001
	c-0.002,0.001-0.008,0.001-0.01,0.001c-1.26-0.087-2.572,0.237-3.309,1.214c-0.029,1.204-0.265,2.4-0.173,3.614l2.41-0.428
	c-0.092-1.203,0.071-2.389,0.204-3.603C15.627,8.392,15.631,8.379,15.635,8.362z"/>
<path fill="#FFFFFF" d="M8.844,8.416l2.4-0.428c-0.468-0.169-0.995-0.285-1.536-0.325c0.002,0,0.003,0,0.003,0
	c-0.001,0-0.005,0-0.012,0C8.443,7.575,7.13,7.9,6.395,8.874c-0.03,1.207-0.265,2.4-0.174,3.618l2.41-0.431
	c-0.094-1.205,0.071-2.388,0.206-3.603C8.839,8.442,8.839,8.43,8.844,8.416z"/>
<polygon fill="#FFFFFF" points="21.976,-7.603 26.402,-9.567 30.656,-7.253 30.704,-6.47 32.027,-7.323 32.11,-8.275 
	28.057,-10.572 "/>
<path fill="#FFFFFF" d="M67.339,3.075c0,1.513,0,3.026,0,4.536c0,0.279-0.23,0.525-0.527,0.525c-0.296,0-0.524-0.247-0.524-0.525
	c0-1.51,0-3.023,0-4.536c0-0.295,0.229-0.527,0.524-0.527C67.109,2.548,67.339,2.78,67.339,3.075L67.339,3.075z"/>
<path fill="#FFFFFF" d="M65.498,3.053c0,1.512,0,3.022,0,4.538c0,0.276-0.232,0.528-0.529,0.528c-0.296,0-0.527-0.252-0.527-0.528
	c0-1.516,0-3.025,0-4.538c0-0.299,0.231-0.527,0.527-0.527C65.266,2.526,65.498,2.754,65.498,3.053L65.498,3.053z"/>
<path fill="#FFFFFF" d="M63.569,3.064c0,1.511,0,3.024,0,4.537c0,0.279-0.23,0.527-0.528,0.527c-0.294,0-0.524-0.248-0.524-0.527
	c0-1.512,0-3.025,0-4.537c0-0.298,0.23-0.525,0.524-0.525C63.338,2.538,63.569,2.765,63.569,3.064L63.569,3.064z"/>
<polygon fill="#FFFFFF" points="69.238,22.858 69.244,1.827 68.689,0.076 68.13,1.827 68.138,22.85 "/>
<polygon fill="#FFFFFF" points="61.77,22.858 61.77,1.827 61.418,0.161 61.067,1.827 61.067,22.858 "/>
<polygon fill="#FFFFFF" points="67.659,1.51 64.885,-5.228 62.607,-0.144 62.607,-0.582 65.02,-6.688 67.923,0.284 "/>
<path fill="#FFFFFF" d="M7.651-0.653c0,0,7.72-4.594,14.962-5.202c0,0,10.283-1.86,20.66,3.417c0,0,5.998,2.775,9.743,7.083h3.609
	V24.13l-1.397,0.007V5.907h-3.293c0,0-6.887-7.108-16.648-9.744C21.26-7.624,8.115-0.899,7.651-0.653z"/>
<g>
	<path fill="#FFFFFF" d="M6.125,32.847v-7.163h2.061c2.32,0,2.909,0.812,2.909,1.974c0,0.67-0.321,1.157-0.901,1.479
		c0.653,0.313,1.041,0.931,1.041,1.65c0,1.231-1.003,2.06-2.312,2.06H6.125z M7.559,28.593c1.059,0,2.062,0.122,2.062-0.866
		c0-1.02-1.046-0.909-2.062-0.909V28.593z M8.491,31.713c0.43,0,1.268,0.056,1.268-1.029c0-0.975-0.81-1.104-2.2-1.004v2.033H8.491z
		"/>
	<path fill="#FFFFFF" d="M16.161,26.902h-3.019v1.711h2.503v1.215h-2.503v1.805h3.195v1.215h-4.631v-7.163h4.455V26.902z"/>
	<path fill="#FFFFFF" d="M19.685,25.684c1.649,0,2.292,1.18,2.292,2.088c0,0.785-0.487,1.514-1.216,1.808l1.428,3.268h-1.51
		l-1.29-2.975h-1.095v2.975h-1.436v-7.163H19.685z M18.918,28.658c0.627,0,1.587,0.035,1.587-0.855c0-0.985-0.969-0.901-1.678-0.901
		h-0.533v1.757H18.918z"/>
	<path fill="#FFFFFF" d="M26.361,25.684h1.658l-2.135,2.801l2.402,4.362h-1.639l-1.731-3.102l-0.745,0.948v2.153h-1.438v-7.163
		h1.438v2.994L26.361,25.684z"/>
	<path fill="#FFFFFF" d="M33.125,26.902h-3.022v1.711h2.507v1.215h-2.507v1.805h3.194v1.215h-4.63v-7.163h4.458V26.902z"/>
	<path fill="#FFFFFF" d="M35.437,31.632h2.983v1.215h-4.417v-7.163h1.434V31.632z"/>
	<path fill="#FFFFFF" d="M43.58,26.902h-3.02v1.711h2.505v1.215h-2.505v1.805h3.195v1.215h-4.63v-7.163h4.455V26.902z"/>
	<path fill="#FFFFFF" d="M47.856,29.954v2.893h-1.434v-2.893l-2.349-4.271h1.528l1.547,3.147l1.6-3.147h1.482L47.856,29.954z"/>
	<path fill="#FFFFFF" d="M54.947,31.632h2.982v1.215h-4.417v-7.163h1.435V31.632z"/>
	<path fill="#FFFFFF" d="M64.413,32.847h-1.46l-0.469-1.795h-2.12l-0.469,1.795H58.43l2.006-7.163h1.938L64.413,32.847z
		 M61.442,26.918h-0.036l-0.755,3h1.547L61.442,26.918z"/>
	<path fill="#FFFFFF" d="M65.017,32.847v-7.163h2.064c2.316,0,2.909,0.812,2.909,1.974c0,0.67-0.324,1.157-0.905,1.479
		c0.657,0.313,1.04,0.931,1.04,1.65c0,1.231-1.003,2.06-2.31,2.06H65.017z M66.453,28.593c1.059,0,2.063,0.122,2.063-0.866
		c0-1.02-1.052-0.909-2.063-0.909V28.593z M67.385,31.713c0.431,0,1.27,0.056,1.27-1.029c0-0.975-0.811-1.104-2.201-1.004v2.033
		H67.385z"/>
</g>
</svg>
