<?xml version="1.0" encoding="utf-8"?>
<!-- Generator: Adobe Illustrator 16.0.3, SVG Export Plug-In . SVG Version: 6.00 Build 0)  -->
<!DOCTYPE svg PUBLIC "-//W3C//DTD SVG 1.1//EN" "http://www.w3.org/Graphics/SVG/1.1/DTD/svg11.dtd">
<svg version="1.1" id="Layer_1" xmlns="http://www.w3.org/2000/svg" xmlns:xlink="http://www.w3.org/1999/xlink" x="0px" y="0px"
	 width="104.371px" height="21.31px" viewBox="-10.646 0.483 104.371 21.31" enable-background="new -10.646 0.483 104.371 21.31"
	 xml:space="preserve">
<g>
	<path fill="#00395A" d="M12.176,16.479c0,0.615-0.502,1.118-1.117,1.118H-9.527c-0.615,0-1.118-0.503-1.118-1.118V1.601
		c0-0.614,0.503-1.117,1.118-1.117h20.586c0.615,0,1.117,0.503,1.117,1.117V16.479L12.176,16.479z"/>
	<polygon fill="#FFFFFF" points="9.586,7.609 8.701,5.456 7.973,7.08 7.973,6.939 8.744,4.99 9.67,7.217 	"/>
	<path fill="#FFFFFF" d="M4.187,9.613l0.778-0.139C4.813,9.419,4.642,9.382,4.467,9.37c0,0,0,0,0.002,0c-0.002,0-0.004,0-0.004,0
		C4.058,9.342,3.631,9.446,3.394,9.763c-0.011,0.392-0.086,0.777-0.058,1.171l0.781-0.139c-0.029-0.39,0.023-0.774,0.066-1.167
		C4.185,9.622,4.186,9.618,4.187,9.613L4.187,9.613z"/>
	<path fill="#FFFFFF" d="M1.957,9.577l0.778-0.139C2.584,9.383,2.412,9.346,2.237,9.334c0.001,0,0.001,0,0.002-0.001
		c-0.002,0-0.003,0-0.004,0.001C1.828,9.305,1.402,9.41,1.164,9.727c-0.011,0.392-0.086,0.777-0.057,1.171l0.781-0.139
		c-0.03-0.39,0.021-0.773,0.066-1.167C1.955,9.586,1.957,9.581,1.957,9.577L1.957,9.577z"/>
	<path fill="#FFFFFF" d="M-0.244,9.594l0.779-0.139C0.383,9.398,0.211,9.363,0.037,9.351c0,0,0-0.001,0.002-0.001
		c-0.002,0-0.002,0-0.004,0.001c-0.408-0.028-0.834,0.075-1.072,0.393c-0.01,0.391-0.086,0.777-0.056,1.171l0.78-0.138
		c-0.03-0.392,0.023-0.774,0.064-1.168C-0.246,9.602-0.244,9.598-0.244,9.594L-0.244,9.594z"/>
	<path fill="#FFFFFF" d="M-2.521,9.594l0.777-0.139c-0.15-0.057-0.322-0.092-0.498-0.104c0.002,0,0.002-0.001,0.002-0.001
		s-0.002,0-0.004,0.001c-0.406-0.028-0.832,0.075-1.07,0.393c-0.01,0.391-0.086,0.777-0.057,1.171l0.781-0.138
		c-0.031-0.392,0.021-0.774,0.064-1.168C-2.523,9.602-2.522,9.598-2.521,9.594L-2.521,9.594z"/>
	<path fill="#FFFFFF" d="M-4.754,9.629l0.778-0.139c-0.151-0.057-0.323-0.093-0.498-0.104c0,0,0.001-0.001,0.002-0.001
		c-0.002,0-0.003,0-0.004,0.001C-4.884,9.356-5.31,9.462-5.547,9.779c-0.011,0.39-0.087,0.776-0.057,1.17l0.781-0.14
		c-0.03-0.391,0.021-0.773,0.066-1.168C-4.756,9.638-4.754,9.633-4.754,9.629L-4.754,9.629z"/>
	<path fill="#FFFFFF" d="M-6.983,9.592l0.778-0.138c-0.152-0.057-0.323-0.093-0.498-0.105l0,0c0,0-0.002,0-0.004,0
		c-0.406-0.027-0.832,0.076-1.07,0.394c-0.01,0.39-0.086,0.776-0.057,1.171l0.78-0.141c-0.028-0.39,0.022-0.773,0.065-1.167
		C-6.985,9.601-6.985,9.597-6.983,9.592L-6.983,9.592z"/>
	<polygon fill="#FFFFFF" points="-3.609,4.342 -2.176,3.705 -0.797,4.454 -0.783,4.707 -0.354,4.432 -0.326,4.123 -1.639,3.379 	"/>
	<path fill="#FFFFFF" d="M9.483,8.108c0,0.482,0,0.966,0,1.449c0,0.088-0.073,0.167-0.168,0.167c-0.094,0-0.168-0.079-0.168-0.167
		c0-0.482,0-0.967,0-1.449c0-0.095,0.074-0.167,0.168-0.167C9.41,7.941,9.483,8.015,9.483,8.108L9.483,8.108L9.483,8.108z"/>
	<path fill="#FFFFFF" d="M8.896,8.101c0,0.483,0,0.967,0,1.449c0,0.089-0.073,0.168-0.168,0.168S8.559,9.639,8.559,9.55
		c0-0.482,0-0.966,0-1.449c0-0.095,0.074-0.168,0.169-0.168S8.896,8.007,8.896,8.101L8.896,8.101L8.896,8.101z"/>
	<path fill="#FFFFFF" d="M8.279,8.104c0,0.483,0,0.967,0,1.449c0,0.089-0.072,0.168-0.168,0.168c-0.095,0-0.168-0.079-0.168-0.168
		c0-0.482,0-0.966,0-1.449c0-0.095,0.073-0.168,0.168-0.168C8.207,7.937,8.279,8.01,8.279,8.104L8.279,8.104L8.279,8.104z"/>
	<polygon fill="#FFFFFF" points="10.09,14.703 10.092,7.71 9.916,7.15 9.736,7.71 9.739,14.703 	"/>
	<polygon fill="#FFFFFF" points="7.705,14.703 7.705,7.71 7.592,7.178 7.479,7.71 7.48,14.703 	"/>
	<path fill="#FFFFFF" d="M-8.562,6.67c0,0,2.343-1.488,4.539-1.685c0,0,3.121-0.604,6.269,1.105c0,0,1.82,0.899,2.957,2.295h1.096
		V14.7l-0.426,0.001V8.794h-1c0,0-2.088-2.303-5.05-3.157C-4.433,4.411-8.42,6.591-8.562,6.67L-8.562,6.67z"/>
	<path fill="#00395A" d="M19.642,13.321c0.519,0,1.522,0.065,1.522-1.236c0-1.169-0.971-1.324-2.639-1.202v2.438H19.642
		L19.642,13.321z M18.526,9.58c1.271,0,2.472,0.144,2.472-1.037c0-1.225-1.257-1.092-2.472-1.092V9.58L18.526,9.58z M16.806,14.678
		V6.095h2.472c2.781,0,3.487,0.972,3.487,2.361c0,0.804-0.388,1.39-1.082,1.774c0.782,0.375,1.248,1.115,1.248,1.977
		c0,1.479-1.204,2.471-2.771,2.471H16.806L16.806,14.678z"/>
	<polygon fill="#00395A" points="28.908,7.551 25.289,7.551 25.289,9.603 28.289,9.603 28.289,11.058 25.289,11.058 25.289,13.221 
		29.117,13.221 29.117,14.678 23.567,14.678 23.567,6.094 28.908,6.094 	"/>
	<path fill="#00395A" d="M32.281,9.658c0.751,0,1.896,0.044,1.896-1.026c0-1.181-1.157-1.081-2.008-1.081h-0.641v2.107H32.281
		L32.281,9.658z M33.196,6.094c1.976,0,2.748,1.413,2.748,2.504c0,0.938-0.585,1.811-1.456,2.162l1.71,3.917h-1.811l-1.544-3.563
		H31.53v3.563H29.81V6.094H33.196L33.196,6.094z"/>
	<polygon fill="#00395A" points="41.209,6.094 43.196,6.094 40.635,9.448 43.516,14.678 41.551,14.678 39.478,10.96 38.584,12.097 
		38.584,14.678 36.861,14.678 36.861,6.094 38.584,6.094 38.584,9.68 	"/>
	<polygon fill="#00395A" points="49.322,7.551 45.703,7.551 45.703,9.603 48.705,9.603 48.705,11.058 45.703,11.058 45.703,13.221 
		49.531,13.221 49.531,14.678 43.981,14.678 43.981,6.094 49.322,6.094 	"/>
	<polygon fill="#00395A" points="52.105,13.221 55.68,13.221 55.68,14.678 50.383,14.678 50.383,6.094 52.105,6.094 	"/>
	<polygon fill="#00395A" points="61.873,7.551 58.252,7.551 58.252,9.603 61.254,9.603 61.254,11.058 58.252,11.058 58.252,13.221 
		62.082,13.221 62.082,14.678 56.531,14.678 56.531,6.094 61.873,6.094 	"/>
	<polygon fill="#00395A" points="67.004,11.213 67.004,14.678 65.283,14.678 65.283,11.213 62.469,6.094 64.301,6.094 66.155,9.868 
		68.075,6.094 69.851,6.094 	"/>
	<polygon fill="#00395A" points="75.515,13.221 79.09,13.221 79.09,14.678 73.795,14.678 73.795,6.094 75.515,6.094 	"/>
	<path fill="#00395A" d="M83.308,7.572h-0.044l-0.906,3.597h1.854L83.308,7.572L83.308,7.572z M86.873,14.678h-1.756l-0.563-2.151
		h-2.539l-0.563,2.151h-1.755l2.404-8.583h2.317L86.873,14.678L86.873,14.678z"/>
	<path fill="#00395A" d="M90.438,13.321c0.519,0,1.521,0.065,1.521-1.236c0-1.169-0.972-1.324-2.636-1.202v2.438H90.438
		L90.438,13.321z M89.324,9.58c1.268,0,2.473,0.144,2.473-1.037c0-1.225-1.258-1.092-2.473-1.092V9.58L89.324,9.58z M87.602,14.678
		V6.095h2.471c2.782,0,3.488,0.972,3.488,2.361c0,0.804-0.387,1.39-1.082,1.774c0.783,0.375,1.247,1.115,1.247,1.977
		c0,1.479-1.204,2.471-2.771,2.471H87.602L87.602,14.678z"/>
	<path fill="#00395A" d="M17.119,19.384v1.219h0.838c0.266,0,0.482-0.069,0.655-0.211c0.121-0.098,0.181-0.229,0.181-0.397
		c0-0.117-0.035-0.223-0.104-0.315c-0.071-0.094-0.181-0.167-0.325-0.218c-0.146-0.051-0.311-0.077-0.494-0.077H17.119
		L17.119,19.384z M17.119,17.975v1.136h0.579c0.382,0,0.646-0.057,0.793-0.167c0.146-0.111,0.22-0.248,0.22-0.41
		c0-0.153-0.064-0.284-0.194-0.395c-0.132-0.108-0.327-0.164-0.591-0.164H17.119L17.119,17.975z M16.812,17.693h1.099
		c0.375,0,0.66,0.082,0.854,0.243c0.193,0.163,0.291,0.352,0.291,0.563c0,0.146-0.049,0.284-0.145,0.416s-0.24,0.238-0.438,0.321
		c0.226,0.086,0.393,0.199,0.502,0.342s0.164,0.292,0.164,0.448c0,0.219-0.104,0.417-0.309,0.594s-0.492,0.265-0.863,0.265h-1.155
		V17.693L16.812,17.693z"/>
	<path fill="#00395A" d="M20.006,19.134c0.125-0.194,0.259-0.336,0.396-0.426c0.14-0.09,0.296-0.135,0.474-0.135
		c0.021,0,0.047,0.001,0.084,0.002l-0.045,0.339l-0.111-0.006c-0.08-0.004-0.172,0.015-0.272,0.058
		c-0.103,0.043-0.19,0.11-0.271,0.203s-0.143,0.208-0.188,0.345c-0.045,0.138-0.066,0.259-0.066,0.364v1.006h-0.309v-2.263h0.309
		V19.134L20.006,19.134z"/>
	<path fill="#00395A" d="M21.39,18.622h0.308v2.263H21.39V18.622L21.39,18.622z M21.39,17.723h0.308v0.369H21.39V17.723
		L21.39,17.723z"/>
	<path fill="#00395A" d="M22.701,18.883c0.166-0.099,0.326-0.174,0.481-0.228s0.28-0.08,0.378-0.08c0.107,0,0.208,0.021,0.3,0.067
		c0.093,0.046,0.172,0.124,0.239,0.236c0.066,0.111,0.102,0.25,0.102,0.416v1.589h-0.308v-1.565c0-0.156-0.035-0.271-0.104-0.349
		c-0.067-0.076-0.162-0.114-0.279-0.114c-0.107,0-0.229,0.023-0.364,0.07c-0.136,0.046-0.282,0.116-0.444,0.21v1.748h-0.307v-2.263
		h0.307V18.883L22.701,18.883z"/>
	<path fill="#00395A" d="M25.672,19.909c0.191,0,0.345-0.056,0.461-0.163c0.113-0.109,0.172-0.238,0.172-0.387
		c0-0.143-0.055-0.264-0.162-0.364c-0.107-0.102-0.26-0.152-0.453-0.152c-0.204,0-0.361,0.05-0.475,0.151
		c-0.109,0.1-0.166,0.226-0.166,0.378c0,0.15,0.058,0.279,0.17,0.382C25.332,19.856,25.483,19.909,25.672,19.909L25.672,19.909z
		 M25.195,20.757c-0.097,0.055-0.17,0.112-0.218,0.173c-0.05,0.062-0.073,0.123-0.073,0.188c0,0.088,0.051,0.167,0.152,0.233
		c0.154,0.105,0.38,0.158,0.671,0.158c0.292,0,0.501-0.043,0.626-0.128c0.089-0.061,0.133-0.138,0.133-0.23
		c0-0.113-0.08-0.199-0.24-0.261C26.086,20.828,25.736,20.784,25.195,20.757L25.195,20.757z M25.053,19.981
		c-0.1-0.087-0.172-0.177-0.217-0.27c-0.043-0.092-0.066-0.201-0.066-0.326c0-0.232,0.083-0.426,0.248-0.58
		c0.165-0.153,0.389-0.229,0.67-0.229c0.117,0,0.229,0.015,0.331,0.046c0.104,0.031,0.2,0.078,0.292,0.141
		c0.152-0.09,0.344-0.136,0.574-0.141v0.269l-0.108-0.002c-0.132,0-0.235,0.018-0.31,0.051c0.074,0.127,0.111,0.267,0.111,0.42
		c0,0.238-0.082,0.437-0.246,0.594s-0.388,0.235-0.67,0.235c-0.088,0-0.188-0.01-0.304-0.028c-0.055-0.01-0.095-0.016-0.12-0.016
		c-0.064,0-0.115,0.018-0.152,0.049c-0.037,0.032-0.056,0.07-0.056,0.113c0,0.053,0.031,0.095,0.095,0.126
		c0.029,0.015,0.125,0.024,0.285,0.03c0.387,0.014,0.672,0.051,0.857,0.111c0.184,0.061,0.313,0.142,0.387,0.245
		c0.074,0.102,0.111,0.214,0.111,0.334c0,0.122-0.04,0.233-0.119,0.334c-0.079,0.102-0.197,0.178-0.354,0.229
		s-0.321,0.077-0.496,0.077c-0.242,0-0.465-0.033-0.666-0.099c-0.151-0.053-0.271-0.13-0.353-0.232s-0.123-0.211-0.123-0.323
		c0-0.087,0.022-0.17,0.068-0.25s0.114-0.155,0.204-0.229c-0.072-0.047-0.122-0.095-0.15-0.139
		c-0.027-0.044-0.042-0.094-0.042-0.149c0-0.074,0.024-0.144,0.072-0.205C24.857,20.104,24.939,20.042,25.053,19.981L25.053,19.981z
		"/>
	<path fill="#00395A" d="M27.306,18.622h0.308v2.263h-0.308V18.622L27.306,18.622z M27.306,17.723h0.308v0.369h-0.308V17.723
		L27.306,17.723z"/>
	<path fill="#00395A" d="M28.617,18.883c0.166-0.099,0.326-0.174,0.481-0.228s0.28-0.08,0.378-0.08c0.107,0,0.208,0.021,0.3,0.067
		c0.093,0.046,0.172,0.124,0.239,0.236c0.066,0.111,0.102,0.25,0.102,0.416v1.589H29.81v-1.565c0-0.156-0.035-0.271-0.104-0.349
		c-0.067-0.076-0.162-0.114-0.279-0.114c-0.107,0-0.229,0.023-0.364,0.07c-0.136,0.047-0.282,0.116-0.444,0.21v1.748h-0.307v-2.263
		h0.307V18.883L28.617,18.883z"/>
	<path fill="#00395A" d="M31.588,19.909c0.191,0,0.346-0.056,0.461-0.163c0.113-0.109,0.172-0.238,0.172-0.387
		c0-0.143-0.055-0.264-0.162-0.364c-0.107-0.102-0.26-0.152-0.452-0.152c-0.205,0-0.362,0.05-0.476,0.151
		c-0.109,0.1-0.166,0.226-0.166,0.378c0,0.15,0.058,0.279,0.17,0.382C31.248,19.856,31.399,19.909,31.588,19.909L31.588,19.909z
		 M31.111,20.757c-0.097,0.055-0.17,0.112-0.218,0.173c-0.05,0.062-0.073,0.123-0.073,0.188c0,0.088,0.051,0.167,0.152,0.233
		c0.154,0.105,0.38,0.158,0.671,0.158c0.292,0,0.501-0.043,0.626-0.128c0.089-0.061,0.133-0.138,0.133-0.23
		c0-0.113-0.08-0.199-0.24-0.261C32.002,20.828,31.652,20.784,31.111,20.757L31.111,20.757z M30.969,19.981
		c-0.098-0.087-0.172-0.177-0.217-0.27c-0.045-0.092-0.066-0.201-0.066-0.326c0-0.232,0.083-0.426,0.248-0.58
		c0.165-0.153,0.389-0.229,0.67-0.229c0.117,0,0.229,0.015,0.331,0.046c0.104,0.031,0.2,0.078,0.293,0.141
		c0.151-0.09,0.343-0.136,0.573-0.141v0.269l-0.108-0.002c-0.132,0-0.235,0.018-0.31,0.051c0.074,0.127,0.111,0.267,0.111,0.42
		c0,0.238-0.082,0.437-0.246,0.594s-0.388,0.235-0.67,0.235c-0.088,0-0.188-0.01-0.304-0.028c-0.056-0.01-0.095-0.016-0.12-0.016
		c-0.064,0-0.115,0.018-0.152,0.049c-0.037,0.032-0.056,0.07-0.056,0.113c0,0.053,0.031,0.095,0.095,0.126
		c0.029,0.015,0.125,0.024,0.285,0.03c0.387,0.014,0.674,0.051,0.856,0.111c0.185,0.061,0.313,0.142,0.388,0.245
		c0.074,0.102,0.111,0.214,0.111,0.334c0,0.122-0.04,0.233-0.119,0.334c-0.079,0.102-0.197,0.178-0.354,0.229
		s-0.322,0.077-0.496,0.077c-0.242,0-0.465-0.033-0.666-0.099c-0.151-0.053-0.271-0.13-0.353-0.232s-0.123-0.211-0.123-0.323
		c0-0.087,0.022-0.17,0.068-0.25s0.114-0.155,0.204-0.229c-0.072-0.047-0.122-0.095-0.15-0.139
		c-0.027-0.044-0.042-0.094-0.042-0.149c0-0.074,0.024-0.144,0.072-0.205C30.773,20.104,30.855,20.042,30.969,19.981L30.969,19.981z
		"/>
	<path fill="#00395A" d="M34.654,19.991c0.035,0.126,0.074,0.224,0.118,0.292c0.071,0.113,0.169,0.205,0.288,0.272
		c0.119,0.068,0.264,0.103,0.434,0.103c0.237,0,0.424-0.062,0.561-0.183c0.136-0.122,0.203-0.266,0.203-0.433
		c0-0.152-0.063-0.281-0.185-0.388c-0.094-0.08-0.282-0.161-0.567-0.242c-0.385-0.111-0.659-0.239-0.823-0.385
		s-0.246-0.324-0.246-0.537c0-0.235,0.092-0.438,0.274-0.605c0.184-0.169,0.424-0.254,0.722-0.254c0.181,0,0.353,0.033,0.512,0.102
		c0.159,0.066,0.294,0.167,0.401,0.301c0.074,0.093,0.134,0.214,0.178,0.361l-0.322,0.1c-0.055-0.189-0.148-0.334-0.283-0.437
		c-0.135-0.101-0.295-0.15-0.48-0.15c-0.198,0-0.357,0.054-0.479,0.162c-0.121,0.107-0.182,0.235-0.182,0.383
		c0,0.121,0.049,0.229,0.146,0.329c0.098,0.098,0.312,0.194,0.642,0.29c0.392,0.111,0.662,0.241,0.812,0.389
		c0.146,0.149,0.221,0.337,0.221,0.563c0,0.257-0.102,0.475-0.301,0.654c-0.201,0.182-0.469,0.271-0.801,0.271
		c-0.207,0-0.397-0.041-0.57-0.124c-0.174-0.082-0.313-0.196-0.422-0.342c-0.074-0.099-0.135-0.233-0.182-0.404L34.654,19.991
		L34.654,19.991z"/>
	<path fill="#00395A" d="M38.885,20.336c-0.103,0.184-0.215,0.321-0.338,0.413c-0.162,0.122-0.346,0.183-0.549,0.183
		c-0.177,0-0.343-0.047-0.498-0.143c-0.154-0.096-0.274-0.233-0.359-0.415c-0.085-0.181-0.127-0.389-0.127-0.623
		c0-0.361,0.096-0.647,0.289-0.858s0.426-0.316,0.697-0.316c0.185,0,0.352,0.048,0.502,0.145c0.149,0.098,0.277,0.243,0.383,0.437
		l-0.268,0.145c-0.086-0.158-0.179-0.275-0.277-0.354c-0.101-0.078-0.215-0.117-0.344-0.117c-0.185,0-0.344,0.079-0.478,0.236
		c-0.134,0.156-0.201,0.392-0.201,0.703c0,0.275,0.067,0.493,0.203,0.653s0.291,0.24,0.467,0.24c0.267,0,0.476-0.158,0.63-0.475
		L38.885,20.336L38.885,20.336z"/>
	<path fill="#00395A" d="M39.389,18.622h0.308v2.263h-0.308V18.622L39.389,18.622z M39.389,17.723h0.308v0.369h-0.308V17.723
		L39.389,17.723z"/>
	<path fill="#00395A" d="M41.851,19.506c-0.022-0.213-0.097-0.38-0.22-0.502c-0.121-0.121-0.26-0.182-0.414-0.182
		c-0.188,0-0.34,0.071-0.452,0.216c-0.113,0.144-0.173,0.3-0.181,0.468H41.851L41.851,19.506z M42.17,20.378
		c-0.14,0.187-0.287,0.326-0.444,0.417s-0.319,0.137-0.488,0.137c-0.267,0-0.495-0.104-0.687-0.314
		c-0.19-0.209-0.286-0.502-0.286-0.877c0-0.361,0.095-0.646,0.282-0.854c0.188-0.208,0.41-0.312,0.662-0.312
		c0.17,0,0.332,0.049,0.486,0.147c0.156,0.1,0.271,0.233,0.352,0.401c0.078,0.168,0.119,0.387,0.123,0.657h-1.599
		c0.007,0.18,0.034,0.327,0.082,0.441c0.063,0.152,0.147,0.263,0.255,0.332c0.106,0.069,0.211,0.104,0.311,0.104
		c0.25,0,0.482-0.153,0.701-0.459L42.17,20.378L42.17,20.378z"/>
	<path fill="#00395A" d="M42.994,18.883c0.166-0.099,0.325-0.174,0.48-0.228c0.154-0.054,0.281-0.08,0.378-0.08
		c0.108,0,0.208,0.021,0.301,0.067c0.091,0.046,0.171,0.124,0.238,0.236c0.067,0.111,0.103,0.25,0.103,0.416v1.589h-0.309v-1.565
		c0-0.156-0.035-0.271-0.104-0.349c-0.068-0.076-0.162-0.114-0.279-0.114c-0.108,0-0.229,0.023-0.364,0.07
		c-0.136,0.046-0.283,0.116-0.444,0.21v1.748h-0.308v-2.263h0.308V18.883L42.994,18.883z"/>
	<path fill="#00395A" d="M46.873,20.336c-0.104,0.184-0.216,0.321-0.338,0.413c-0.162,0.122-0.346,0.183-0.55,0.183
		c-0.177,0-0.343-0.047-0.498-0.143c-0.153-0.096-0.274-0.233-0.358-0.415C45.043,20.193,45,19.985,45,19.751
		c0-0.361,0.098-0.647,0.291-0.858c0.191-0.211,0.424-0.316,0.697-0.316c0.184,0,0.352,0.048,0.501,0.145
		c0.15,0.098,0.277,0.243,0.384,0.437l-0.269,0.145c-0.085-0.158-0.179-0.275-0.276-0.354c-0.102-0.078-0.216-0.117-0.345-0.117
		c-0.185,0-0.343,0.079-0.478,0.236c-0.133,0.156-0.2,0.392-0.2,0.703c0,0.275,0.067,0.493,0.202,0.653
		c0.137,0.16,0.291,0.24,0.468,0.24c0.265,0,0.475-0.158,0.629-0.475L46.873,20.336L46.873,20.336z"/>
	<path fill="#00395A" d="M48.793,19.506c-0.021-0.213-0.095-0.38-0.218-0.502c-0.122-0.121-0.261-0.182-0.415-0.182
		c-0.188,0-0.339,0.071-0.451,0.216c-0.113,0.144-0.174,0.3-0.181,0.468H48.793L48.793,19.506z M49.113,20.378
		c-0.139,0.187-0.287,0.326-0.443,0.417c-0.158,0.091-0.319,0.137-0.488,0.137c-0.268,0-0.495-0.104-0.688-0.314
		c-0.189-0.209-0.285-0.502-0.285-0.877c0-0.361,0.094-0.646,0.282-0.854s0.409-0.312,0.662-0.312c0.169,0,0.331,0.049,0.486,0.147
		c0.155,0.1,0.272,0.233,0.351,0.401c0.079,0.168,0.119,0.387,0.123,0.657h-1.598c0.007,0.18,0.033,0.327,0.082,0.441
		c0.063,0.152,0.148,0.263,0.255,0.332s0.21,0.104,0.31,0.104c0.25,0,0.483-0.153,0.701-0.459L49.113,20.378L49.113,20.378z"/>
	<path fill="#00395A" d="M51.111,19.991c0.035,0.126,0.074,0.224,0.118,0.292c0.071,0.113,0.169,0.205,0.288,0.272
		c0.119,0.068,0.264,0.103,0.434,0.103c0.237,0,0.424-0.062,0.561-0.183c0.135-0.122,0.203-0.266,0.203-0.433
		c0-0.152-0.063-0.281-0.185-0.388c-0.094-0.08-0.282-0.161-0.567-0.242c-0.385-0.111-0.66-0.239-0.823-0.385
		c-0.164-0.146-0.246-0.324-0.246-0.537c0-0.235,0.091-0.438,0.274-0.605c0.184-0.169,0.424-0.254,0.721-0.254
		c0.182,0,0.353,0.033,0.512,0.102c0.16,0.066,0.294,0.167,0.402,0.301c0.074,0.093,0.134,0.214,0.177,0.361l-0.322,0.1
		c-0.055-0.189-0.147-0.334-0.282-0.437c-0.135-0.101-0.295-0.15-0.48-0.15c-0.198,0-0.357,0.054-0.479,0.162
		c-0.121,0.107-0.182,0.235-0.182,0.383c0,0.121,0.049,0.229,0.146,0.329c0.098,0.098,0.312,0.194,0.642,0.29
		c0.392,0.111,0.661,0.241,0.812,0.389c0.146,0.149,0.221,0.337,0.221,0.563c0,0.257-0.102,0.475-0.301,0.654
		c-0.201,0.182-0.469,0.271-0.801,0.271c-0.209,0-0.397-0.041-0.57-0.124c-0.174-0.082-0.313-0.196-0.422-0.342
		c-0.074-0.099-0.135-0.233-0.182-0.404L51.111,19.991L51.111,19.991z"/>
	<path fill="#00395A" d="M54.477,20.67c0.186,0,0.347-0.08,0.482-0.24c0.137-0.16,0.205-0.39,0.205-0.688
		c0-0.295-0.065-0.521-0.199-0.674c-0.133-0.154-0.295-0.232-0.482-0.232c-0.197,0-0.366,0.079-0.502,0.236
		c-0.135,0.156-0.203,0.382-0.203,0.674c0,0.299,0.068,0.527,0.205,0.687C54.119,20.591,54.283,20.67,54.477,20.67L54.477,20.67z
		 M54.504,20.932c-0.291,0-0.535-0.105-0.732-0.317c-0.198-0.212-0.297-0.497-0.297-0.855c0-0.239,0.044-0.45,0.131-0.635
		c0.088-0.186,0.211-0.322,0.368-0.413s0.323-0.136,0.501-0.136c0.172,0,0.335,0.046,0.492,0.14
		c0.156,0.094,0.279,0.234,0.371,0.423c0.09,0.189,0.137,0.4,0.137,0.633c0,0.355-0.096,0.638-0.288,0.848
		C54.994,20.827,54.767,20.932,54.504,20.932L54.504,20.932z"/>
	<polygon fill="#00395A" points="56.041,17.693 56.347,17.693 56.347,20.885 56.041,20.885 	"/>
	<path fill="#00395A" d="M57.019,18.622h0.308v1.483c0,0.164,0.041,0.292,0.121,0.386c0.081,0.093,0.178,0.139,0.287,0.139
		c0.102,0,0.209-0.027,0.327-0.081s0.267-0.156,0.448-0.307v-1.621h0.31v2.263h-0.31V20.52c-0.172,0.137-0.328,0.239-0.471,0.309
		c-0.142,0.068-0.27,0.103-0.383,0.103c-0.109,0-0.213-0.023-0.309-0.075c-0.098-0.05-0.176-0.132-0.237-0.246
		s-0.093-0.264-0.093-0.447L57.019,18.622L57.019,18.622z"/>
	<path fill="#00395A" d="M59.656,17.796h0.305v0.826h0.562v0.28h-0.562v1.406c0,0.117,0.03,0.208,0.092,0.272
		c0.063,0.064,0.146,0.098,0.248,0.098c0.058,0,0.131-0.011,0.222-0.033v0.276c-0.104,0.013-0.192,0.02-0.265,0.02
		c-0.217,0-0.371-0.046-0.463-0.136s-0.139-0.236-0.139-0.441v-1.461H59.26v-0.28h0.396V17.796L59.656,17.796z"/>
	<path fill="#00395A" d="M60.998,18.622h0.309v2.263h-0.309V18.622L60.998,18.622z M60.998,17.723h0.309v0.369h-0.309V17.723
		L60.998,17.723z"/>
	<path fill="#00395A" d="M62.873,20.67c0.186,0,0.346-0.08,0.482-0.24c0.136-0.16,0.205-0.39,0.205-0.688
		c0-0.295-0.066-0.521-0.2-0.674c-0.133-0.154-0.294-0.232-0.481-0.232c-0.198,0-0.367,0.079-0.502,0.236
		c-0.136,0.156-0.203,0.382-0.203,0.674c0,0.299,0.067,0.527,0.203,0.687C62.514,20.591,62.678,20.67,62.873,20.67L62.873,20.67z
		 M62.899,20.932c-0.291,0-0.535-0.105-0.731-0.317c-0.199-0.212-0.299-0.497-0.299-0.855c0-0.239,0.045-0.45,0.133-0.635
		c0.088-0.186,0.209-0.322,0.367-0.413c0.157-0.091,0.324-0.136,0.502-0.136c0.17,0,0.334,0.046,0.49,0.14
		c0.157,0.094,0.281,0.234,0.372,0.423c0.091,0.189,0.138,0.4,0.138,0.633c0,0.355-0.097,0.638-0.289,0.848
		C63.39,20.827,63.162,20.932,62.899,20.932L62.899,20.932z"/>
	<path fill="#00395A" d="M64.719,18.883c0.164-0.099,0.324-0.174,0.479-0.228s0.281-0.08,0.38-0.08c0.106,0,0.207,0.021,0.299,0.067
		s0.172,0.124,0.238,0.236c0.067,0.111,0.102,0.25,0.102,0.416v1.589H65.91v-1.565c0-0.156-0.035-0.271-0.104-0.349
		c-0.068-0.076-0.162-0.114-0.279-0.114c-0.108,0-0.229,0.023-0.364,0.07s-0.283,0.116-0.443,0.21v1.748H64.41v-2.263h0.309V18.883
		L64.719,18.883z"/>
	<path fill="#00395A" d="M66.897,19.574c-0.11-0.117-0.167-0.247-0.167-0.391c0-0.166,0.068-0.309,0.205-0.429
		c0.136-0.12,0.324-0.18,0.568-0.18c0.16,0,0.313,0.028,0.457,0.088c0.145,0.059,0.267,0.146,0.367,0.26l-0.232,0.197
		c-0.088-0.101-0.176-0.173-0.271-0.22c-0.093-0.048-0.198-0.071-0.317-0.071c-0.152,0-0.271,0.033-0.35,0.099
		c-0.078,0.066-0.119,0.144-0.119,0.229c0,0.074,0.031,0.142,0.094,0.199c0.061,0.06,0.201,0.117,0.426,0.176
		c0.343,0.089,0.574,0.196,0.693,0.322s0.181,0.266,0.181,0.416c0,0.182-0.071,0.336-0.214,0.466
		c-0.144,0.129-0.338,0.192-0.584,0.192c-0.178,0-0.344-0.034-0.495-0.101c-0.152-0.067-0.313-0.181-0.48-0.338l0.265-0.185
		c0.127,0.126,0.244,0.217,0.355,0.271c0.11,0.054,0.229,0.081,0.352,0.081c0.156,0,0.278-0.038,0.365-0.112
		c0.086-0.076,0.129-0.164,0.129-0.265c0-0.084-0.031-0.156-0.098-0.218c-0.091-0.086-0.273-0.165-0.549-0.235
		c-0.17-0.045-0.313-0.095-0.424-0.15C67,19.654,66.946,19.619,66.897,19.574L66.897,19.574z"/>
	<path fill="#00395A" d="M70.422,17.796h0.305v0.826h0.563v0.28h-0.563v1.406c0,0.117,0.029,0.208,0.092,0.272
		s0.145,0.098,0.249,0.098c0.056,0,0.13-0.011,0.222-0.033v0.276c-0.105,0.013-0.193,0.02-0.267,0.02
		c-0.216,0-0.37-0.046-0.462-0.136s-0.139-0.236-0.139-0.441v-1.461h-0.396v-0.28h0.396V17.796L70.422,17.796z"/>
	<path fill="#00395A" d="M72.555,20.67c0.186,0,0.347-0.08,0.482-0.24c0.137-0.16,0.205-0.39,0.205-0.688
		c0-0.295-0.066-0.521-0.199-0.674c-0.133-0.154-0.295-0.232-0.482-0.232c-0.199,0-0.366,0.079-0.502,0.236
		c-0.137,0.156-0.203,0.382-0.203,0.674c0,0.299,0.068,0.527,0.204,0.687C72.195,20.591,72.36,20.67,72.555,20.67L72.555,20.67z
		 M72.582,20.932c-0.291,0-0.535-0.105-0.732-0.317s-0.297-0.497-0.297-0.855c0-0.239,0.044-0.45,0.132-0.635
		c0.088-0.186,0.21-0.322,0.366-0.413c0.158-0.091,0.324-0.136,0.502-0.136c0.172,0,0.336,0.046,0.492,0.14s0.279,0.234,0.371,0.423
		c0.092,0.189,0.137,0.4,0.137,0.633c0,0.355-0.096,0.638-0.287,0.848C73.072,20.827,72.844,20.932,72.582,20.932L72.582,20.932z"/>
	<path fill="#00395A" d="M75.549,17.796h0.305v0.826h0.563v0.28h-0.563v1.406c0,0.117,0.029,0.208,0.093,0.272
		c0.062,0.064,0.146,0.098,0.248,0.098c0.058,0,0.13-0.011,0.222-0.033v0.276c-0.104,0.013-0.193,0.02-0.266,0.02
		c-0.217,0-0.37-0.046-0.462-0.136c-0.093-0.09-0.14-0.236-0.14-0.441v-1.461h-0.396v-0.28h0.396V17.796L75.549,17.796z"/>
	<path fill="#00395A" d="M76.865,17.693h0.309v1.179c0.26-0.131,0.443-0.212,0.555-0.246c0.109-0.034,0.217-0.051,0.318-0.051
		c0.183,0,0.332,0.063,0.447,0.188s0.174,0.314,0.174,0.564v1.556H78.36v-1.625c0-0.13-0.034-0.229-0.103-0.298
		c-0.069-0.068-0.164-0.102-0.287-0.102c-0.109,0-0.23,0.022-0.363,0.067s-0.277,0.114-0.436,0.206v1.751h-0.308L76.865,17.693
		L76.865,17.693z"/>
	<path fill="#00395A" d="M80.765,19.506c-0.022-0.213-0.095-0.38-0.218-0.502c-0.123-0.121-0.262-0.182-0.416-0.182
		c-0.188,0-0.34,0.071-0.453,0.216c-0.111,0.144-0.172,0.3-0.18,0.468H80.765L80.765,19.506z M81.086,20.378
		c-0.141,0.187-0.287,0.326-0.444,0.417s-0.32,0.137-0.488,0.137c-0.269,0-0.496-0.104-0.688-0.314
		c-0.189-0.209-0.285-0.502-0.285-0.877c0-0.361,0.095-0.646,0.283-0.854s0.41-0.312,0.662-0.312c0.168,0,0.33,0.049,0.486,0.147
		c0.155,0.1,0.271,0.233,0.35,0.401s0.119,0.387,0.125,0.657h-1.6c0.008,0.18,0.034,0.327,0.082,0.441
		c0.063,0.152,0.148,0.263,0.255,0.332s0.21,0.104,0.31,0.104c0.25,0,0.483-0.153,0.701-0.459L81.086,20.378L81.086,20.378z"/>
	<polygon fill="#00395A" points="82.615,17.693 82.92,17.693 83.586,20.237 84.256,17.693 84.574,17.693 85.239,20.237 
		85.912,17.693 86.211,17.693 85.371,20.885 85.103,20.885 84.414,18.261 83.723,20.885 83.445,20.885 	"/>
	<path fill="#00395A" d="M87.349,20.67c0.187,0,0.347-0.08,0.483-0.24c0.135-0.16,0.205-0.39,0.205-0.688
		c0-0.295-0.066-0.521-0.201-0.674c-0.133-0.154-0.293-0.232-0.481-0.232c-0.199,0-0.366,0.079-0.502,0.236
		c-0.136,0.156-0.203,0.382-0.203,0.674c0,0.299,0.067,0.527,0.204,0.687C86.99,20.591,87.154,20.67,87.349,20.67L87.349,20.67z
		 M87.377,20.932c-0.291,0-0.535-0.105-0.733-0.317c-0.197-0.212-0.296-0.497-0.296-0.855c0-0.239,0.043-0.45,0.131-0.635
		c0.088-0.186,0.21-0.322,0.367-0.413c0.158-0.091,0.324-0.136,0.502-0.136c0.171,0,0.335,0.046,0.49,0.14
		c0.158,0.094,0.281,0.234,0.373,0.423c0.09,0.189,0.137,0.4,0.137,0.633c0,0.355-0.096,0.638-0.288,0.848
		C87.866,20.827,87.639,20.932,87.377,20.932L87.377,20.932z"/>
	<path fill="#00395A" d="M89.201,19.134c0.127-0.194,0.258-0.336,0.396-0.426c0.138-0.09,0.296-0.135,0.473-0.135
		c0.02,0,0.049,0.001,0.085,0.002l-0.045,0.339L90,18.908c-0.082-0.004-0.174,0.015-0.274,0.058s-0.19,0.11-0.271,0.203
		s-0.142,0.208-0.187,0.345c-0.045,0.138-0.067,0.259-0.067,0.364v1.006h-0.308v-2.263h0.308V19.134L89.201,19.134z"/>
	<polygon fill="#00395A" points="90.586,17.693 90.893,17.693 90.893,20.885 90.586,20.885 	"/>
	<path fill="#00395A" d="M93.17,19.188c-0.127-0.111-0.252-0.195-0.373-0.252c-0.123-0.055-0.242-0.083-0.36-0.083
		c-0.192,0-0.353,0.075-0.479,0.225c-0.127,0.148-0.191,0.371-0.191,0.665c0,0.307,0.064,0.537,0.195,0.688
		c0.131,0.152,0.291,0.229,0.479,0.229c0.115,0,0.234-0.028,0.355-0.085c0.123-0.058,0.248-0.143,0.375-0.255V19.188L93.17,19.188z
		 M93.17,17.693h0.305v2.485c0,0.13,0.009,0.265,0.025,0.401c0.017,0.139,0.035,0.24,0.057,0.304h-0.315
		c-0.032-0.116-0.051-0.221-0.053-0.313c-0.136,0.118-0.271,0.209-0.403,0.269c-0.133,0.062-0.264,0.091-0.393,0.091
		c-0.256,0-0.475-0.104-0.658-0.311s-0.273-0.494-0.273-0.86c0-0.375,0.092-0.666,0.275-0.874s0.405-0.312,0.66-0.312
		c0.131,0,0.258,0.026,0.382,0.083c0.123,0.056,0.254,0.144,0.392,0.264V17.693L93.17,17.693z"/>
</g>
</svg>
