<?xml version="1.0" encoding="utf-8"?>
<!-- Generator: Adobe Illustrator 16.0.3, SVG Export Plug-In . SVG Version: 6.00 Build 0)  -->
<!DOCTYPE svg PUBLIC "-//W3C//DTD SVG 1.1//EN" "http://www.w3.org/Graphics/SVG/1.1/DTD/svg11.dtd">
<svg version="1.1" id="Layer_1" xmlns="http://www.w3.org/2000/svg" xmlns:xlink="http://www.w3.org/1999/xlink" x="0px" y="0px"
	 width="720px" height="219px" viewBox="0 0 720 219" enable-background="new 0 0 720 219" xml:space="preserve">
<g>
	<path fill="#FFFFFF" d="M495.5,159.3c-5.7,10.931-12.76,17.229-23.88,17.229c-16.38,0-27.66-15.899-27.66-38.84
		c0-23.549,11.29-39.299,28.1-39.299c14.9,0,20,11.1,23.761,18.9v-17.1h12.319v74.669c0,19.5-11.87,30.601-32.46,30.601
		c-16.979,0-28.56-7.8-28.56-19.05c0-1.801-0.05-4.17,0.84-6.75l10.86,4.93c-1,7.721,8,10.52,16.859,10.52
		c12.32,0,19.83-5.85,19.83-15.75V159.3 M457.35,135.6c0,13.2,1.801,20.24,6.761,25.34c3,3.15,7.06,4.801,12.17,4.801
		c12.18,0,19.399-9.9,19.399-26.4c0-19.04-7.979-30.9-20.6-30.9c-11.271,0-17.73,9.9-17.73,27.15 M586.02,136.5
		c0,24.43-13.829,40.029-35.02,40.029c-20.14,0-34.1-16.199-34.1-39.6c0-22.63,14.119-38.68,34.25-38.68
		c20.439,0,34.869,15.75,34.869,38.24 M530.12,137.689c0,17.84,7.96,28.041,22.1,28.041c12.761,0,20.58-10.65,20.58-28.351
		c0-20.25-9.479-28.5-21.8-28.5c-12.92,0-20.88,10.05-20.88,28.8"/>
	<path fill="#FFFFFF" d="M584.1,100.2h12.28l18.48,56.54l18.05-56.54h12.13l-23.33,74.1h-13.5L584.1,100.2z M205.65,20.05l20.9-0.7
		l-23.06,13.4l-3.36,20.17l-10.67-12l-22.84,13.1l16.47-20.58l-10.76-12.3l20.83-0.68L209.1,0.4L205.65,20.05z M165.4,27.2
		C82.4,37.95,20.93,66.03,0,90c21.8-20.27,91.9-43.78,171.1-56.08 M199.92,64.44c-2.14,0-4.66,0.17-6.62,1.37
		c-4.84,3.06-4.48,13.1-4.48,17.87v44.22c0,13.43-0.72,28.74-11.48,38.779c-9.5,8.851-21.87,11.23-34.77,11.23
		c-8.24,0-15.06-0.84-22.95-3.57c-20.96-7.32-27.42-19.9-27.42-40.3v-69.6H78.22v-3.4h55.03v3.4h-13.98v66.02
		c0,9.86-0.9,21.101,5.56,29.601c6.27,8.33,14.33,11.06,24.9,11.06c11.84,0,24.56-4.601,30.3-14.97c4.84-8.84,4.48-19.4,4.48-29.101
		v-44.9c0-10.37-0.35-17.86-13.07-17.86h-3.4v-3.23h33.15v3.4h-1.26"/>
	<path fill="#FFFFFF" d="M345.8,174.3v-3.25h13.42l-12-32.659h-32.05l-6.97,18.869c-1.04,2.73-1.74,5.801-1.74,8.68
		c0,5.781,8.7,5.101,12.7,5.101v3.24h-33.42v-3.25h4c8.37,0,11.5-5.8,14.1-12.761L340.6,57.92h2.4l44.05,113.12h11.15v3.24h-52.4
		 M331.34,94.14l-14.8,40.65H346l-14.64-40.64L331.34,94.14z M420.15,176.3c-6.931,0-12.7-5.86-12.7-12.93
		c0-7.06,5.77-12.94,12.7-12.94c6.92,0,12.5,5.881,12.5,12.94c0,7.069-5.58,12.94-12.5,12.94 M248.43,177
		c-10.3,0-18.3-2.9-27.87-6.3c-0.9-0.33-1.95-0.671-2.84-1c-1.95-0.86-5.32-3.07-7.46-3.07c-4.43,0-3.55,4.25-5.32,6.3l-0.17,1.36
		h-3.03l-0.9-42.899h3.38c2.85,11.239,6.4,19.92,14.56,28.42c8,8.33,17.4,13.77,29.48,13.77c13.3,0,25.2-8.5,25.2-21.95
		c0-15.3-12.96-18.88-25.92-21.94l-10.3-2.369c-9.23-2.041-18.27-3.74-25.55-9.86c-2.85-2.399-4.8-4.94-6.58-8.18
		c-3.02-5.44-4.27-11.4-4.27-17.52c0-20.93,17.57-33.86,38.35-33.86c9.58,0,17.57,2.9,26.28,6.64c2.48,1.02,5.5,2.72,8.34,2.72
		c4.08,0,4.26-3.57,4.44-6.64h3.37V97.2h-3.55c-3.55-18.35-16.16-35.88-37.46-35.88c-12.07,0-24.67,6.98-24.67,19.74
		c0,13.44,14.2,16.5,25.38,18.7c6.04,1.2,12.07,2.05,17.93,3.4c19.53,4.43,30.18,16.17,30.18,35.57
		C289.43,161.35,271.68,177,248.43,177 M227.05,205.35c-1.2,1.471-1.7,2.021-2.86,2.82c-2.6,1.86-5.97,2.93-9.3,2.93
		c-9,0-14.88-5.629-14.88-14.26c0-9.859,5.8-16,15.23-16c4.73,0,8.52,2.37,10.6,5.1l-2.48,3.17c-1.95-2.879-4.88-4.699-8.33-4.699
		c-6.6,0-10.55,4.55-10.55,12.199c-0.02,6.931,3.9,11,10.5,11c4.38,0,6.5-2.049,7.83-3.469V199.5h-11.97v-3.529h16.2v9.379
		 M253,200.529c0,6.451-3.9,10.57-9.9,10.57c-5.72,0-9.67-4.279-9.67-10.449c0-6,4-10.23,9.7-10.23c5.78,0,9.87,4.16,9.87,10.1
		 M237.17,200.84c0,4.7,2.25,7.4,6.25,7.4c3.63,0,5.84-2.801,5.84-7.48c0-5.35-2.68-7.52-6.17-7.52c-3.68,0-5.93,2.65-5.93,7.6"/>
	<path fill="#FFFFFF" d="M256.7,191.529h3.45l5.2,14.931l5.06-14.931h3.42l-6.55,19.57h-3.8L256.7,191.529z M295.8,205.48
		c-0.8,1.66-1.26,2.299-2.2,3.17c-1.8,1.619-4.04,2.449-6.6,2.449c-5.57,0-9.32-4.199-9.32-10.34c0-6.1,3.88-10.34,9.5-10.34
		c5.15,0,8.93,3.96,8.93,9.301c0,0.6-0.03,1.279-0.08,2.1H281.4c0.32,6.63,5.13,6.63,5.9,6.63c4.04,0,5.2-3.101,5.66-4.28
		l2.84,1.301 M292.4,199.17c-0.33-6.05-4.85-6.05-5.4-6.05c-3.32,0-5.32,2.17-5.53,6.06h10.94L292.4,199.17z M305.72,195.32
		c1.07-1.801,2.52-4.271,5.6-4.271c0.4,0,0.9,0.04,1.47,0.08v3.45c-0.9-0.12-1.32-0.17-1.84-0.17c-3.1,0.02-5.28,2.1-5.28,5.1v11.6
		h-3.53V191.54h3.57v3.8 M335.3,211.1h-3.57v-12.6c0-2.939-1.62-4.641-4.35-4.641c-3.1,0-5.32,2.021-5.32,4.881V211.1h-3.56v-19.57
		h3.56V195c1.97-2.641,4.26-4,6.86-4c3.8,0,6.38,2.63,6.38,6.5V211.1 M370.7,211.1h-3.521v-12.64c0-2.899-1.56-4.63-4.13-4.63
		c-3.14,0-4.76,1.93-4.76,5.699v11.57h-3.6v-11.85c0-3.77-1.26-5.46-4.12-5.46c-2.8,0-4.76,2.13-4.76,5.13v12.17h-3.53v-19.57h3.52
		v3.601c1.7-2.851,3.58-4.12,6.17-4.12c3.02,0,4.7,1.52,5.87,4.3c1.18-1.7,2.93-4.3,6.551-4.3c3.659,0,6.299,2.74,6.299,6.4V211.1"
		/>
	<path fill="#FFFFFF" d="M394.85,205.48c-0.8,1.66-1.279,2.299-2.199,3.17c-1.801,1.619-4.061,2.449-6.601,2.449
		c-5.6,0-9.329-4.199-9.329-10.34c0-6.1,3.869-10.34,9.5-10.34c5.139,0,8.93,3.96,8.93,9.301c0,0.6-0.041,1.279-0.101,2.1h-14.63
		c0.34,6.63,5.15,6.63,5.92,6.63c4.03,0,5.2-3.101,5.66-4.28l2.85,1.301 M391.45,199.17c-0.351-6.05-4.86-6.05-5.4-6.05
		c-3.34,0-5.34,2.17-5.55,6.06h10.939L391.45,199.17z M418,211.1h-3.57v-12.6c0-2.939-1.6-4.641-4.34-4.641
		c-3.12,0-5.33,2.021-5.33,4.881V211.1h-3.569v-19.57h3.569V195c1.96-2.641,4.26-4,6.851-4c3.8,0,6.38,2.63,6.38,6.5v13.6
		 M429.8,183.45v7.5h4.47v2.76h-4.47v11.851c0,2.06,0.431,2.699,1.87,2.699c0.5,0,1.061-0.08,2.34-0.359v2.77
		c-1.56,0.301-2.46,0.43-3.229,0.43c-3.271,0-4.54-1-4.54-3.56V193.7h-3.8v-2.761h3.8v-5.1l3.569-2.4"/>
	<path fill="#FFFFFF" d="M540.3,182.529h6.5v28.57h-3.77V185.7l-8.3,25.399H530.6l-8.35-25.399V211.1h-3.77v-28.57H525l7.66,23.261
		L540.3,182.529z M553.54,194.859c0.77-1.75,2.07-4.479,8.63-4.479c7.75,0,7.75,3.841,7.75,5.78l-0.06,9.6c0,2.4,0.14,2.6,1.67,2.65
		v2.27c-1.101,0.301-1.67,0.43-2.25,0.43c-2.761,0-2.971-2.139-2.971-3.84c-1.229,1.42-3.399,3.84-7.069,3.84
		c-3.7,0-6.5-2.729-6.5-6.379c0-1.541,0.729-3.17,1.899-4.301c1.5-1.449,3.57-2.199,6.98-2.5c3.04-0.33,3.43-0.439,4.75-1.699
		c-0.05-2.4-0.9-2.98-4-2.98c-3.24,0-4.9,0.87-5.9,3.08l-2.899-1.46 M566.37,198.71c-1.5,1.069-1.9,1.229-4.351,1.62
		c-2.42,0.4-3.52,0.88-4.47,1.9c-0.68,0.72-1.069,1.6-1.069,2.539c0,2.15,1.619,3.65,3.96,3.65c1.46,0,2.939-0.6,4.04-1.58
		c1.42-1.27,1.899-2.5,1.899-4.949v-3.171L566.37,198.71z M590.56,181.971h3.58v28.579h-3.52V206c-1.33,2.16-2.48,5.1-6.75,5.1
		c-4.84,0-7.9-4.039-7.9-10.35c0-6.061,3.2-10.221,7.87-10.221c4.13,0,5.62,2.82,6.72,5.08V181.98 M579.68,201.24
		c0,4.439,1.87,7.05,5.05,7.05c1.36,0,2.801-0.55,3.801-1.5c1.449-1.271,2.029-3.13,2.029-6.06c0-7.451-5.399-7.451-5.8-7.451
		C581.4,193.4,579.68,196.12,579.68,201.24"/>
	<path fill="#FFFFFF" d="M618.27,205.48c-0.8,1.66-1.27,2.299-2.199,3.17c-1.801,1.619-4.051,2.449-6.601,2.449
		c-5.6,0-9.33-4.199-9.33-10.34c0-6.1,3.88-10.34,9.5-10.34c5.15,0,8.931,3.96,8.931,9.301c0,0.6-0.051,1.279-0.101,2.1h-14.62
		c0.351,6.63,5.141,6.63,5.92,6.63c4.04,0,5.181-3.101,5.65-4.28l2.85,1.301 M614.87,199.17c-0.351-6.05-4.851-6.05-5.4-6.05
		c-3.33,0-5.33,2.17-5.53,6.06h10.931V199.17z M634.7,182.529h19.1l-1.14,3.371h-13.8v8.76h12.649v3.4h-12.64v9.629h13.84l1.23,3.4
		H634.7V182.529z M658.83,195.02c0.77-1.74,2.08-4.5,8.64-4.5c7.74,0,7.74,3.871,7.74,5.801l-0.04,9.6c0,2.4,0.141,2.6,1.68,2.641
		v2.26c-1.1,0.32-1.68,0.439-2.27,0.439c-2.771,0-2.97-2.14-2.97-3.84c-1.24,1.42-3.4,3.84-7.07,3.84c-3.7,0-6.5-2.729-6.5-6.38
		c0-1.54,0.72-3.18,1.9-4.3c1.5-1.45,3.569-2.2,6.979-2.5c3.03-0.33,3.42-0.45,4.73-1.7c-0.04-2.399-0.9-3-4-3
		c-3.24,0-4.9,0.899-5.86,3.101l-2.94-1.461 M671.65,198.859c-1.5,1.07-1.9,1.23-4.33,1.621c-2.431,0.399-3.54,0.879-4.471,1.899
		c-0.699,0.72-1.06,1.601-1.06,2.54c0,2.15,1.6,3.641,3.96,3.641c1.44,0,2.93-0.601,4.03-1.58c1.399-1.271,1.87-2.5,1.87-4.951
		V198.859L671.65,198.859z M684.23,204.13c0.34,2.96,2.34,4.431,6.039,4.431c2.9,0,5.061-1.271,5.061-2.94
		c0-1.7-1.57-2.64-5.48-3.28c-4.1-0.699-7.84-1.98-7.84-6.1c0-3.4,3.351-5.75,8.2-5.75c6.06,0,7.9,3.949,8.07,5.26l-2.5,1.58
		c-0.73-2.801-2.561-4.1-5.681-4.1c-2.67,0-4.8,1.18-4.8,2.68c0,1.6,1.601,2.5,5.44,3.1c0.939,0.15,8.05,0.83,8.13,6.1
		c0,0.15,0,6.141-9.021,6.141c-2.52,0-4.56-0.6-6.1-1.75c-1.22-0.9-1.74-1.73-2.38-3.8L684.23,204.13 M702.84,191.46h3.36l5.5,15.3
		l4.899-15.3h3.4l-6.78,20.319l-0.33,1.101c-1.1,3.341-1.84,5.72-6.659,5.72c-0.601,0-1.271-0.05-2.42-0.16v-2.779
		c1.229,0.199,1.75,0.24,2.34,0.24c2.26,0,2.819-0.601,4.05-4.4L702.84,191.46"/>
</g>
</svg>
