<?xml version="1.0" encoding="UTF-8" standalone="no"?>
<!-- Created with Inkscape (http://www.inkscape.org/) -->

<svg
   xmlns:dc="http://purl.org/dc/elements/1.1/"
   xmlns:cc="http://creativecommons.org/ns#"
   xmlns:rdf="http://www.w3.org/1999/02/22-rdf-syntax-ns#"
   xmlns:svg="http://www.w3.org/2000/svg"
   xmlns="http://www.w3.org/2000/svg"
   version="1.1"
   width="120"
   height="44.346661"
   id="svg2">
  <metadata
     id="metadata18">
    <rdf:RDF>
      <cc:Work
         rdf:about="">
        <dc:format>image/svg+xml</dc:format>
        <dc:type
           rdf:resource="http://purl.org/dc/dcmitype/StillImage" />
        <dc:title></dc:title>
      </cc:Work>
    </rdf:RDF>
  </metadata>
  <defs
     id="defs16" />
  <g
     transform="matrix(1.4640693,0,0,1.4640693,-0.00975949,0)"
     id="g4"
     style="fill:#ffffff">
    <path
       d="m 38.16,0.35 v 14.83 c 0,3.13 -1.77,6.43 -7.1,6.43 -4.8,0 -7.12,-2.48 -7.12,-6.42 V 0.35 h 4.37 V 14.9 c 0,2.56 1.1,3.58 2.7,3.58 1.92,0 2.8,-1.27 2.8,-3.6 V 0.36 h 4.36 z m 7.11,21.25 c -5.4,0 -6.43,-3.18 -6.2,-6.8 h 4.38 c 0,2 0.1,3.68 2.5,3.68 1.47,0 2.2,-0.96 2.2,-2.38 0,-3.76 -8.8,-4 -8.8,-10.22 C 39.31,2.6 40.88,0 46.22,0 c 4.26,0 6.37,1.9 6.08,6.28 h -4.25 c 0,-1.56 -0.26,-3.15 -2.02,-3.15 -1.42,0 -2.26,0.78 -2.26,2.23 0,3.96 8.8,3.62 8.8,10.2 0,5.4 -3.97,6.05 -7.3,6.05 z m 29.4,0 c -5.4,0 -6.43,-3.18 -6.2,-6.8 h 4.38 c 0,2 0.1,3.68 2.5,3.68 1.47,0 2.2,-0.96 2.2,-2.38 0,-3.76 -8.8,-4 -8.8,-10.22 C 68.74,2.6 70.3,0 75.62,0 79.9,0 82,1.9 81.7,6.28 h -4.25 c 0,-1.56 -0.26,-3.15 -2.02,-3.15 -1.42,0 -2.26,0.78 -2.26,2.23 0,3.96 8.8,3.62 8.8,10.2 0,5.4 -3.96,6.05 -7.3,6.05 z M 60.74,13.47 h 2.58 v 4.6 l -0.22,0.1 c -0.66,0.22 -1.44,0.4 -2.17,0.4 -2.5,0 -3.13,-1.16 -3.13,-7.7 0,-4.06 0,-7.74 2.73,-7.74 2.1,0 2.56,1.43 2.6,3.15 h 4.36 C 67.5,2.23 64.9,0 60.8,0 c -7.17,0 -7.43,5.36 -7.43,10.63 0,7.94 0.86,11.02 8.22,11.02 1.7,0 4.4,-0.4 5.67,-0.73 0.07,-0.02 0.2,-0.1 0.2,-0.22 0,-0.56 0,-10.4 0,-10.4 h -6.73 v 3.17 z"
       id="path6"
       style="fill:#ffffff" />
  </g>
  <g
     transform="matrix(1.4640693,0,0,1.4640693,-0.00975949,0)"
     id="g8"
     style="fill:#ffffff">
    <path
       d="M 1.08,27.67 C 1.04,27.84 1.01,28 1.04,28.12 c 0.03,0.12 0.13,0.17 0.33,0.17 0.2,0 0.4,-0.14 0.46,-0.4 C 2,27.14 0.15,27.3 0.4,26.14 c 0.17,-0.8 1,-1.04 1.67,-1.04 0.7,0 1.27,0.33 1.04,1.13 h -1 c 0.06,-0.26 0.06,-0.4 0,-0.48 -0.05,-0.06 -0.13,-0.08 -0.24,-0.08 -0.23,0 -0.38,0.15 -0.44,0.4 -0.12,0.58 1.7,0.55 1.45,1.74 -0.14,0.65 -0.77,1.13 -1.63,1.13 -0.9,0 -1.45,-0.23 -1.17,-1.26 h 1 z M 5.5,26.48 c 0.1,-0.55 0,-0.73 -0.3,-0.73 -0.45,0 -0.57,0.4 -0.74,1.16 -0.23,1.13 -0.2,1.37 0.2,1.37 0.3,0 0.53,-0.3 0.63,-0.77 H 6.3 c -0.2,1 -0.85,1.43 -1.8,1.43 -1.34,0 -1.34,-0.8 -1.1,-1.96 0.22,-1 0.55,-1.88 1.9,-1.88 0.96,0 1.4,0.42 1.2,1.38 h -1 z m 2.1,2.38 h -1 l 0.79,-3.7 H 8.4 l -0.8,3.7 z m 1.1,-5.1 -0.18,0.8 H 7.5 l 0.17,-0.8 H 8.7 z m 47.14,5.1 H 54.8 l 0.8,-3.7 h 1.02 l -0.78,3.7 z m 1.08,-5.1 -0.17,0.8 h -1.03 l 0.17,-0.8 h 1.02 z M 9.6,27.18 c -0.1,0.43 -0.22,1.1 0.23,1.1 0.37,0 0.52,-0.36 0.58,-0.66 h 1.06 c -0.1,0.4 -0.3,0.73 -0.6,0.95 -0.3,0.23 -0.68,0.36 -1.17,0.36 -1.34,0 -1.34,-0.8 -1.1,-1.97 0.22,-1 0.55,-1.87 1.9,-1.87 1.4,0 1.36,0.9 1.07,2.08 H 9.6 z m 1.06,-0.58 c 0.08,-0.36 0.2,-0.87 -0.3,-0.87 -0.46,0 -0.57,0.56 -0.64,0.87 h 0.94 z m 2.86,-1.06 c 0.3,-0.33 0.6,-0.45 0.98,-0.45 0.5,0 0.85,0.3 0.75,0.8 l -0.63,2.96 H 13.6 l 0.53,-2.55 c 0.07,-0.3 0.06,-0.57 -0.27,-0.57 -0.32,0 -0.44,0.26 -0.5,0.58 l -0.55,2.56 H 11.8 l 0.8,-3.7 h 1.02 l -0.08,0.38 z m 4.08,0.94 c 0.12,-0.55 0.02,-0.73 -0.3,-0.73 -0.44,0 -0.56,0.4 -0.72,1.16 -0.24,1.13 -0.2,1.37 0.2,1.37 0.3,0 0.52,-0.3 0.63,-0.77 h 1.04 c -0.22,1 -0.85,1.43 -1.8,1.43 -1.34,0 -1.35,-0.8 -1.1,-1.96 0.2,-1 0.54,-1.88 1.9,-1.88 0.95,0 1.4,0.42 1.2,1.38 H 17.6 z m 2.36,0.7 c -0.1,0.43 -0.22,1.1 0.24,1.1 0.36,0 0.5,-0.36 0.57,-0.66 h 1.05 c -0.1,0.4 -0.3,0.73 -0.6,0.95 -0.3,0.23 -0.68,0.36 -1.16,0.36 -1.33,0 -1.34,-0.8 -1.1,-1.97 0.22,-1 0.55,-1.87 1.9,-1.87 1.4,0 1.36,0.9 1.08,2.08 h -1.98 z m 1.07,-0.58 c 0.07,-0.36 0.2,-0.87 -0.3,-0.87 -0.47,0 -0.58,0.56 -0.64,0.87 h 0.93 z m 5.23,-2.2 c -0.4,-0.03 -0.53,0.14 -0.6,0.5 l -0.08,0.27 h 0.48 l -0.14,0.63 h -0.48 l -0.65,3.06 H 23.75 L 24.4,25.8 h -0.45 l 0.14,-0.63 h 0.45 c 0.2,-0.93 0.4,-1.44 1.5,-1.44 0.1,0 0.23,0 0.35,0.02 l -0.14,0.65 z m -0.33,2.56 c 0.22,-1 0.55,-1.87 1.9,-1.87 1.35,0 1.33,0.86 1.12,1.86 -0.25,1.16 -0.6,1.97 -1.93,1.97 -1.33,0 -1.33,-0.8 -1.1,-1.96 z m 2,-0.05 c 0.16,-0.76 0.2,-1.15 -0.23,-1.15 -0.43,0 -0.56,0.4 -0.72,1.16 -0.24,1.13 -0.2,1.37 0.18,1.37 0.38,0 0.53,-0.24 0.77,-1.36 z m 2.87,-1.74 -0.1,0.47 c 0.3,-0.42 0.67,-0.55 1.08,-0.55 l -0.2,0.9 c -0.9,-0.04 -1,0.48 -1.1,0.85 l -0.42,2 h -1.03 l 0.79,-3.68 h 0.97 z m 4.9,3 c -0.04,0.23 -0.06,0.46 -0.1,0.7 h -0.95 l 0.06,-0.5 c -0.3,0.38 -0.64,0.56 -1.08,0.56 -0.72,0 -0.87,-0.53 -0.73,-1.18 0.25,-1.22 1.2,-1.27 2.15,-1.25 l 0.06,-0.3 c 0.08,-0.3 0.1,-0.53 -0.3,-0.53 -0.35,0 -0.43,0.27 -0.5,0.56 h -1 c 0.1,-0.44 0.3,-0.73 0.57,-0.9 0.27,-0.17 0.62,-0.23 1,-0.23 1.32,0 1.37,0.56 1.23,1.23 l -0.4,1.84 z m -1.8,-0.46 c -0.05,0.27 -0.08,0.6 0.26,0.6 0.6,0 0.7,-0.82 0.77,-1.23 -0.52,0.03 -0.9,-0.02 -1.03,0.64 z m 5.88,-1.23 c 0.12,-0.55 0.02,-0.73 -0.3,-0.73 -0.44,0 -0.56,0.4 -0.72,1.16 -0.24,1.13 -0.2,1.37 0.18,1.37 0.33,0 0.54,-0.3 0.64,-0.77 h 1.04 c -0.22,1 -0.85,1.43 -1.8,1.43 -1.35,0 -1.35,-0.8 -1.1,-1.96 0.2,-1 0.54,-1.88 1.9,-1.88 0.95,0 1.4,0.42 1.2,1.38 h -1.04 z m 7.47,1.69 c -0.05,0.23 -0.07,0.46 -0.1,0.7 H 46.2 l 0.06,-0.5 h -0.02 c -0.3,0.38 -0.64,0.56 -1.08,0.56 -0.72,0 -0.87,-0.53 -0.73,-1.18 0.26,-1.22 1.2,-1.27 2.17,-1.25 l 0.06,-0.3 c 0.07,-0.3 0.07,-0.53 -0.3,-0.53 -0.36,0 -0.45,0.27 -0.5,0.56 h -1.02 c 0.1,-0.44 0.3,-0.73 0.57,-0.9 0.28,-0.17 0.63,-0.23 1.03,-0.23 1.3,0 1.35,0.56 1.2,1.23 l -0.38,1.84 z m -1.8,-0.46 c -0.06,0.27 -0.08,0.6 0.25,0.6 0.6,0 0.7,-0.82 0.77,-1.23 -0.5,0.03 -0.88,-0.02 -1.02,0.64 z m 4.05,-2.17 h 0.03 c 0.27,-0.33 0.57,-0.45 0.96,-0.45 0.48,0 0.85,0.3 0.74,0.8 l -0.63,2.96 h -1 l 0.54,-2.55 c 0.07,-0.3 0.07,-0.57 -0.26,-0.57 -0.33,0 -0.44,0.26 -0.5,0.58 l -0.55,2.56 H 47.8 l 0.78,-3.7 h 1.03 l -0.1,0.38 z m 5.35,-0.37 -0.8,3.84 c -0.07,0.27 -0.27,1.28 -1.7,1.28 -0.75,0 -1.37,-0.2 -1.2,-1.1 h 1 c -0.02,0.15 -0.03,0.3 0.02,0.37 0.04,0.1 0.15,0.15 0.3,0.15 0.27,0 0.44,-0.24 0.52,-0.62 l 0.14,-0.7 c -0.23,0.28 -0.55,0.43 -0.9,0.43 -1.12,0 -0.85,-1.03 -0.67,-1.86 0.17,-0.82 0.4,-1.85 1.48,-1.85 0.36,0 0.64,0.16 0.72,0.5 l 0.1,-0.43 h 0.98 z m -2.1,3 c 0.38,0 0.52,-0.4 0.68,-1.17 0.17,-0.8 0.24,-1.27 -0.14,-1.27 -0.4,0 -0.53,0.27 -0.76,1.4 -0.08,0.34 -0.28,1.04 0.22,1.04 z m 5.55,-2.63 h 0.02 c 0.27,-0.33 0.57,-0.45 0.96,-0.45 0.5,0 0.86,0.3 0.75,0.8 l -0.63,2.96 h -1.03 l 0.54,-2.55 c 0.08,-0.3 0.08,-0.57 -0.25,-0.57 -0.33,0 -0.44,0.26 -0.5,0.58 l -0.55,2.56 h -1.03 l 0.78,-3.7 h 1.03 l -0.08,0.38 z m 5.34,-0.37 -0.8,3.84 c -0.07,0.27 -0.27,1.28 -1.7,1.28 -0.75,0 -1.37,-0.2 -1.2,-1.1 h 1 c -0.02,0.15 -0.03,0.3 0.02,0.37 0.04,0.1 0.15,0.15 0.3,0.15 0.27,0 0.44,-0.24 0.52,-0.62 l 0.15,-0.7 c -0.23,0.28 -0.55,0.43 -0.9,0.43 -1.12,0 -0.85,-1.03 -0.67,-1.86 0.17,-0.82 0.4,-1.85 1.48,-1.85 0.36,0 0.65,0.16 0.72,0.5 l 0.1,-0.43 h 0.98 z m -2.1,3 c 0.38,0 0.52,-0.4 0.68,-1.17 0.18,-0.8 0.24,-1.27 -0.14,-1.27 -0.4,0 -0.5,0.27 -0.75,1.4 -0.08,0.34 -0.28,1.04 0.22,1.04 z m 3.71,-3 h 1.02 l -0.08,2.77 1.23,-2.77 h 1.1 v 2.77 h 0.03 l 1.12,-2.77 h 1 l -1.76,3.7 h -1.08 l -0.1,-2.46 h -0.02 l -1.24,2.46 h -1.1 l -0.13,-3.7 z m 5.21,1.79 c 0.22,-1 0.54,-1.87 1.9,-1.87 1.36,0 1.33,0.86 1.1,1.86 -0.23,1.16 -0.58,1.97 -1.9,1.97 -1.34,0 -1.34,-0.8 -1.1,-1.96 z m 2,-0.05 c 0.16,-0.76 0.2,-1.15 -0.24,-1.15 -0.43,0 -0.55,0.4 -0.72,1.16 -0.24,1.13 -0.2,1.37 0.2,1.37 0.37,0 0.52,-0.24 0.75,-1.36 z m 2.92,-1.74 -0.1,0.47 c 0.3,-0.42 0.67,-0.55 1.08,-0.55 l -0.2,0.9 c -0.88,-0.04 -1,0.48 -1.1,0.85 l -0.42,2 H 73.6 l 0.8,-3.68 h 0.98 z M 43.57,25.1 c -0.4,0 -0.7,0.1 -0.97,0.44 l 0.37,-1.8 h -1.03 l -1.1,5.12 h 1.04 l 0.54,-2.55 c 0.07,-0.32 0.2,-0.57 0.52,-0.57 0.32,0 0.33,0.25 0.26,0.58 l -0.54,2.56 h 1.03 l 0.62,-2.96 c 0.1,-0.5 -0.26,-0.8 -0.75,-0.8 z M 77.1,23.75 76,28.85 h 1.04 l 1.1,-5.1 z m 3.44,0 -0.38,1.77 C 80,25.2 79.76,25.09 79.4,25.09 c -1.04,0 -1.25,1.14 -1.4,1.9 -0.17,0.75 -0.46,1.93 0.6,1.93 0.4,0 0.7,-0.12 0.98,-0.48 l -0.07,0.4 h 0.98 l 1.1,-5.1 h -1.04 z m -0.7,3.23 c -0.18,0.93 -0.33,1.3 -0.68,1.3 -0.38,0 -0.36,-0.37 -0.16,-1.3 0.15,-0.74 0.26,-1.25 0.7,-1.25 0.42,0 0.3,0.5 0.15,1.25 z"
       id="path10"
       style="fill:#ffffff" />
  </g>
  <path
     d="m 8.5696865,10.804832 0.1024849,0.102484 c 3.0013416,2.415715 6.2369356,2.049697 8.4476796,0.585628 1.566554,-1.024848 8.594087,-5.70987 12.590996,-8.345195 V 0.497784 H 0.04880328 V 7.4667536 C 1.8496085,7.1739398 5.0266389,7.5106756 8.5404052,10.804832 z M 19.315955,22.356338 15.802189,18.988979 C 15.304405,18.549758 14.879825,18.227663 14.77734,18.154459 11.951687,16.163325 9.1845956,16.836797 8.2768727,17.188174 7.925496,17.334581 7.6034008,17.52491 7.3691497,17.671317 l -7.32034642,4.87535 v 8.857619 H 29.710847 v -6.368701 c -0.673472,0.409939 -4.831429,2.576762 -10.394892,-2.679247 z M 29.696206,6.3979831 c -3.513766,2.3425108 -9.223636,6.1490909 -9.926389,6.6322339 -1.024849,0.673472 -3.660174,2.488918 -7.37891,0.688113 l 0.541706,0.351376 c 0.292814,0.263533 0.805238,0.585628 1.171255,0.819879 2.591403,1.654398 5.27065,1.361584 7.496035,-0.117126 1.566554,-1.024848 5.417057,-3.60161 8.081663,-5.3731339 V 6.4126238 z m 0,12.5470739 c -1.083411,0.732034 -2.152181,1.420147 -2.576762,1.712961 -0.995567,0.688112 -3.279515,2.342511 -7.130017,0.497783 l 0.439221,0.439221 c 0.190329,0.146407 0.395298,0.336736 0.614909,0.512424 2.75245,2.049698 5.665948,1.756884 7.905974,0.292814 0.248892,-0.190329 0.483143,-0.336736 0.732035,-0.497783 v -2.95742 z m 0,-6.295498 c -2.444995,1.639758 -5.70987,3.80658 -6.324779,4.245801 -0.995567,0.658831 -3.367359,2.342511 -7.173939,0.541705 0,0 0.585627,0.527065 0.64419,0.585628 3.220952,2.488918 6.149091,2.093619 8.345195,0.614909 1.2591,-0.834519 3.015983,-2.020415 4.480052,-3.015982 V 12.649559 z M 7.5594787,11.683273 C 7.4130718,11.536866 7.2373835,11.434381 7.0909766,11.302615 3.8700241,8.8136974 0.89796347,9.9556714 0.09272536,10.321689 v 2.854935 L 1.6446388,12.151775 c 0,0 2.5474806,-1.90329 6.4419049,0 l -0.527065,-0.468502 z m 3.4991253,3.513766 C 8.0865437,12.795966 5.2608899,13.381594 4.0896345,13.820814 3.7528986,13.967221 3.4308033,14.14291 3.2111929,14.260035 L 2.874457,14.494286 0.09272536,16.353654 v 2.986702 L 5.3340934,15.826589 c 0,0 2.5621213,-1.90329 6.4419046,-0.02928 0,0 -0.585627,-0.439221 -0.732034,-0.585627 z"
     id="path12"
     style="fill:#ffffff" />
</svg>
